<mxfile host="app.diagrams.net" modified="2024-10-23T15:41:50.279Z" agent="Mozilla/5.0 (Macintosh; Intel Mac OS X 10_15_7) AppleWebKit/537.36 (KHTML, like Gecko) Chrome/129.0.0.0 Safari/537.36" version="21.7.5" etag="FCSSOXMNc_bl8shEvsxF" type="github">
  <diagram name="Page-1" id="pN379Aaxy1WjmSQwVj7q">
    <mxGraphModel>
      <root>
        <mxCell id="0" />
        <mxCell id="1" parent="0" />
      </root>
    </mxGraphModel>
  </diagram>
</mxfile>
